<svg width="36" height="36" viewBox="0 0 36 36" fill="none" xmlns="http://www.w3.org/2000/svg">
<path d="M11.25 5.625C10.1375 5.625 9.04995 5.9549 8.12492 6.57299C7.19989 7.19107 6.47892 8.06957 6.05318 9.09741C5.62744 10.1252 5.51604 11.2562 5.73309 12.3474C5.95013 13.4385 6.48586 14.4408 7.27253 15.2275C8.0592 16.0141 9.06148 16.5499 10.1526 16.7669C11.2438 16.984 12.3748 16.8726 13.4026 16.4468C14.4304 16.0211 15.3089 15.3001 15.927 14.3751C16.5451 13.4501 16.875 12.3625 16.875 11.25C16.875 9.75816 16.2824 8.32742 15.2275 7.27253C14.1726 6.21763 12.7418 5.625 11.25 5.625ZM11.25 14.625C10.5825 14.625 9.92997 14.4271 9.37495 14.0562C8.81994 13.6854 8.38736 13.1583 8.13191 12.5416C7.87646 11.9249 7.80963 11.2463 7.93985 10.5916C8.07008 9.93689 8.39152 9.33552 8.86352 8.86352C9.33552 8.39152 9.93689 8.07008 10.5916 7.93985C11.2463 7.80963 11.9249 7.87646 12.5416 8.13191C13.1583 8.38736 13.6854 8.81994 14.0562 9.37495C14.4271 9.92997 14.625 10.5825 14.625 11.25C14.625 12.1451 14.2694 13.0036 13.6365 13.6365C13.0036 14.2694 12.1451 14.625 11.25 14.625ZM24.75 16.875C25.8625 16.875 26.9501 16.5451 27.8751 15.927C28.8001 15.3089 29.5211 14.4304 29.9468 13.4026C30.3726 12.3748 30.484 11.2438 30.2669 10.1526C30.0499 9.06148 29.5141 8.0592 28.7275 7.27253C27.9408 6.48586 26.9385 5.95013 25.8474 5.73309C24.7562 5.51604 23.6252 5.62744 22.5974 6.05318C21.5696 6.47892 20.6911 7.19989 20.073 8.12492C19.4549 9.04995 19.125 10.1375 19.125 11.25C19.125 12.7418 19.7176 14.1726 20.7725 15.2275C21.8274 16.2824 23.2582 16.875 24.75 16.875ZM24.75 7.875C25.4175 7.875 26.07 8.07294 26.6251 8.44379C27.1801 8.81464 27.6126 9.34175 27.8681 9.95845C28.1235 10.5751 28.1904 11.2537 28.0602 11.9084C27.9299 12.5631 27.6085 13.1645 27.1365 13.6365C26.6645 14.1085 26.0631 14.4299 25.4084 14.5602C24.7537 14.6904 24.0751 14.6235 23.4584 14.3681C22.8417 14.1127 22.3146 13.6801 21.9438 13.1251C21.5729 12.57 21.375 11.9175 21.375 11.25C21.375 10.3549 21.7306 9.49645 22.3635 8.86352C22.9965 8.23058 23.8549 7.875 24.75 7.875ZM11.25 19.125C10.1375 19.125 9.04995 19.4549 8.12492 20.073C7.19989 20.6911 6.47892 21.5696 6.05318 22.5974C5.62744 23.6252 5.51604 24.7562 5.73309 25.8474C5.95013 26.9385 6.48586 27.9408 7.27253 28.7275C8.0592 29.5141 9.06148 30.0499 10.1526 30.2669C11.2438 30.484 12.3748 30.3726 13.4026 29.9468C14.4304 29.5211 15.3089 28.8001 15.927 27.8751C16.5451 26.9501 16.875 25.8625 16.875 24.75C16.875 23.2582 16.2824 21.8274 15.2275 20.7725C14.1726 19.7176 12.7418 19.125 11.25 19.125ZM11.25 28.125C10.5825 28.125 9.92997 27.9271 9.37495 27.5562C8.81994 27.1854 8.38736 26.6583 8.13191 26.0416C7.87646 25.4249 7.80963 24.7463 7.93985 24.0916C8.07008 23.4369 8.39152 22.8355 8.86352 22.3635C9.33552 21.8915 9.93689 21.5701 10.5916 21.4399C11.2463 21.3096 11.9249 21.3765 12.5416 21.6319C13.1583 21.8874 13.6854 22.3199 14.0562 22.875C14.4271 23.43 14.625 24.0825 14.625 24.75C14.625 25.6451 14.2694 26.5036 13.6365 27.1365C13.0036 27.7694 12.1451 28.125 11.25 28.125ZM30.375 24.75C30.375 25.0484 30.2565 25.3345 30.0455 25.5455C29.8345 25.7565 29.5484 25.875 29.25 25.875H25.875V29.25C25.875 29.5484 25.7565 29.8345 25.5455 30.0455C25.3345 30.2565 25.0484 30.375 24.75 30.375C24.4516 30.375 24.1655 30.2565 23.9545 30.0455C23.7435 29.8345 23.625 29.5484 23.625 29.25V25.875H20.25C19.9516 25.875 19.6655 25.7565 19.4545 25.5455C19.2435 25.3345 19.125 25.0484 19.125 24.75C19.125 24.4516 19.2435 24.1655 19.4545 23.9545C19.6655 23.7435 19.9516 23.625 20.25 23.625H23.625V20.25C23.625 19.9516 23.7435 19.6655 23.9545 19.4545C24.1655 19.2435 24.4516 19.125 24.75 19.125C25.0484 19.125 25.3345 19.2435 25.5455 19.4545C25.7565 19.6655 25.875 19.9516 25.875 20.25V23.625H29.25C29.5484 23.625 29.8345 23.7435 30.0455 23.9545C30.2565 24.1655 30.375 24.4516 30.375 24.75Z" fill="url(#paint0_linear_1_983)"/>
<defs>
<linearGradient id="paint0_linear_1_983" x1="2.325" y1="10.2656" x2="30.8069" y2="24.5985" gradientUnits="userSpaceOnUse">
<stop stop-color="#D8D8D8"/>
<stop offset="1" stop-color="#FFD335"/>
</linearGradient>
</defs>
</svg>
