<svg width="32" height="32" viewBox="0 0 32 32" fill="none" xmlns="http://www.w3.org/2000/svg">
<path d="M14.0008 6V26C14.0008 26.2652 13.8954 26.5196 13.7079 26.7071C13.5204 26.8946 13.266 27 13.0008 27C12.7356 27 12.4812 26.8946 12.2937 26.7071C12.1061 26.5196 12.0008 26.2652 12.0008 26V17H5.41454L7.70829 19.2925C7.89593 19.4801 8.00134 19.7346 8.00134 20C8.00134 20.2654 7.89593 20.5199 7.70829 20.7075C7.52065 20.8951 7.26615 21.0006 7.00079 21.0006C6.73542 21.0006 6.48093 20.8951 6.29329 20.7075L2.29329 16.7075C2.20031 16.6146 2.12655 16.5043 2.07623 16.3829C2.0259 16.2615 2 16.1314 2 16C2 15.8686 2.0259 15.7385 2.07623 15.6171C2.12655 15.4957 2.20031 15.3854 2.29329 15.2925L6.29329 11.2925C6.48093 11.1049 6.73542 10.9994 7.00079 10.9994C7.26615 10.9994 7.52065 11.1049 7.70829 11.2925C7.89593 11.4801 8.00134 11.7346 8.00134 12C8.00134 12.2654 7.89593 12.5199 7.70829 12.7075L5.41454 15H12.0008V6C12.0008 5.73478 12.1061 5.48043 12.2937 5.29289C12.4812 5.10536 12.7356 5 13.0008 5C13.266 5 13.5204 5.10536 13.7079 5.29289C13.8954 5.48043 14.0008 5.73478 14.0008 6ZM29.7083 15.2925L25.7083 11.2925C25.5206 11.1049 25.2661 10.9994 25.0008 10.9994C24.7354 10.9994 24.4809 11.1049 24.2933 11.2925C24.1056 11.4801 24.0002 11.7346 24.0002 12C24.0002 12.2654 24.1056 12.5199 24.2933 12.7075L26.587 15H20.0008V6C20.0008 5.73478 19.8954 5.48043 19.7079 5.29289C19.5204 5.10536 19.266 5 19.0008 5C18.7356 5 18.4812 5.10536 18.2937 5.29289C18.1061 5.48043 18.0008 5.73478 18.0008 6V26C18.0008 26.2652 18.1061 26.5196 18.2937 26.7071C18.4812 26.8946 18.7356 27 19.0008 27C19.266 27 19.5204 26.8946 19.7079 26.7071C19.8954 26.5196 20.0008 26.2652 20.0008 26V17H26.587L24.2933 19.2925C24.1056 19.4801 24.0002 19.7346 24.0002 20C24.0002 20.2654 24.1056 20.5199 24.2933 20.7075C24.4809 20.8951 24.7354 21.0006 25.0008 21.0006C25.2661 21.0006 25.5206 20.8951 25.7083 20.7075L29.7083 16.7075C29.8013 16.6146 29.875 16.5043 29.9253 16.3829C29.9757 16.2615 30.0016 16.1314 30.0016 16C30.0016 15.8686 29.9757 15.7385 29.9253 15.6171C29.875 15.4957 29.8013 15.3854 29.7083 15.2925Z" fill="url(#paint0_linear_1_1026)"/>
<defs>
<linearGradient id="paint0_linear_1_1026" x1="16.0008" y1="5" x2="16.0008" y2="27" gradientUnits="userSpaceOnUse">
<stop stop-color="#B98320" stop-opacity="0.3"/>
<stop offset="1" stop-color="#DE8900"/>
</linearGradient>
</defs>
</svg>
