<svg width="36" height="36" viewBox="0 0 36 36" fill="none" xmlns="http://www.w3.org/2000/svg">
<path d="M32.4717 24.1875C32.6203 24.4454 32.6607 24.7516 32.584 25.0391C32.5073 25.3267 32.3198 25.5721 32.0625 25.7217L18.5625 33.5967C18.3905 33.697 18.1949 33.7499 17.9958 33.7499C17.7966 33.7499 17.6011 33.697 17.4291 33.5967L3.92906 25.7217C3.67551 25.5694 3.49217 25.3233 3.41873 25.0367C3.3453 24.7502 3.38769 24.4462 3.53672 24.1907C3.68575 23.9351 3.92943 23.7486 4.21499 23.6714C4.50056 23.5942 4.80504 23.6326 5.0625 23.7783L18 31.3228L30.9375 23.7783C31.1954 23.6297 31.5016 23.5893 31.7891 23.666C32.0767 23.7427 32.3221 23.9302 32.4717 24.1875ZM30.9375 17.0283L18 24.5728L5.0625 17.0283C4.80634 16.9008 4.51121 16.8756 4.23718 16.958C3.96315 17.0404 3.7308 17.2241 3.58745 17.4718C3.44409 17.7194 3.40049 18.0124 3.46552 18.291C3.53055 18.5697 3.69933 18.8131 3.9375 18.9717L17.4375 26.8467C17.6095 26.947 17.8051 26.9999 18.0042 26.9999C18.2034 26.9999 18.3989 26.947 18.5709 26.8467L32.0709 18.9717C32.2006 18.8984 32.3144 18.8 32.4057 18.6823C32.4971 18.5646 32.5641 18.4299 32.603 18.2861C32.6419 18.1423 32.6518 17.9922 32.6322 17.8445C32.6126 17.6968 32.5638 17.5545 32.4888 17.4258C32.4137 17.2971 32.3138 17.1846 32.195 17.0948C32.0761 17.0051 31.9405 16.9398 31.7962 16.9028C31.6519 16.8658 31.5017 16.8579 31.3543 16.8794C31.2069 16.9009 31.0652 16.9516 30.9375 17.0283ZM3.375 11.25C3.37545 11.053 3.42764 10.8595 3.52636 10.689C3.62508 10.5184 3.76685 10.3768 3.9375 10.2783L17.4375 2.40329C17.6095 2.30298 17.8051 2.25012 18.0042 2.25012C18.2034 2.25012 18.3989 2.30298 18.5709 2.40329L32.0709 10.2783C32.2408 10.3774 32.3817 10.5192 32.4796 10.6897C32.5775 10.8602 32.629 11.0534 32.629 11.25C32.629 11.4466 32.5775 11.6398 32.4796 11.8103C32.3817 11.9808 32.2408 12.1227 32.0709 12.2217L18.5709 20.0967C18.3989 20.197 18.2034 20.2499 18.0042 20.2499C17.8051 20.2499 17.6095 20.197 17.4375 20.0967L3.9375 12.2217C3.76685 12.1232 3.62508 11.9816 3.52636 11.8111C3.42764 11.6405 3.37545 11.4471 3.375 11.25ZM6.73313 11.25L18 17.8228L29.2669 11.25L18 4.6772L6.73313 11.25Z" fill="url(#paint0_linear_1_992)"/>
<defs>
<linearGradient id="paint0_linear_1_992" x1="-0.527261" y1="8.15633" x2="34.1097" y2="24.351" gradientUnits="userSpaceOnUse">
<stop stop-color="#FFEFAA"/>
<stop offset="1" stop-color="#FFCF21"/>
</linearGradient>
</defs>
</svg>
